<?xml version="1.0" standalone="no"?>
<!DOCTYPE svg PUBLIC "-//W3C//DTD SVG 20010904//EN"
 "http://www.w3.org/TR/2001/REC-SVG-20010904/DTD/svg10.dtd">
<svg version="1.0" xmlns="http://www.w3.org/2000/svg"
 width="235.000000pt" height="235.000000pt" viewBox="0 0 235.000000 235.000000"
 preserveAspectRatio="xMidYMid meet">
<metadata>
Created by potrace 1.14, written by Peter Selinger 2001-2017
</metadata>
<g transform="translate(0.000000,235.000000) scale(0.100000,-0.100000)"
fill="#000000" stroke="none">
<path d="M1928 2165 c-2 -2 -34 -6 -73 -9 -79 -7 -115 -12 -195 -27 -30 -6
-68 -12 -85 -14 -75 -9 -421 -95 -555 -138 l-75 -24 -105 53 c-57 30 -112 54
-121 54 -16 0 -174 -56 -224 -80 -11 -5 -43 -19 -72 -30 -28 -12 -58 -29 -66
-38 -8 -10 -68 -122 -132 -251 l-118 -234 17 -32 c10 -17 27 -43 39 -56 12
-13 39 -47 60 -74 108 -142 311 -355 505 -532 l53 -48 3 -124 3 -125 45 -40
c58 -52 114 -98 197 -161 l66 -50 115 3 c63 2 169 5 235 7 66 1 138 3 161 4
l40 1 47 100 c26 56 47 104 47 108 0 5 9 28 21 51 20 42 144 406 153 452 3 13
7 33 10 44 9 33 28 109 31 125 2 8 4 15 5 15 1 0 3 11 6 24 6 35 18 46 97 90
157 89 154 84 182 246 40 227 40 235 -15 322 -24 37 -46 70 -49 73 -3 3 -12
16 -19 30 -7 14 -50 83 -95 155 -71 111 -87 129 -110 130 -15 1 -28 1 -29 0z
m-109 -503 c-1 -42 -23 -160 -31 -168 -4 -4 -53 -8 -108 -10 -55 -1 -104 -5
-110 -9 -5 -3 -9 -16 -9 -28 1 -27 -7 -80 -26 -177 -8 -41 -17 -86 -19 -100
-3 -14 -12 -52 -21 -85 -9 -33 -18 -67 -20 -75 -23 -95 -89 -284 -132 -376
l-25 -54 -31 22 c-18 12 -37 27 -43 33 -6 5 -23 19 -37 30 -15 11 -27 23 -27
28 0 4 20 48 45 99 l45 91 -33 24 c-17 12 -43 31 -56 40 -133 96 -374 323
-492 463 -29 35 -62 73 -71 84 -21 23 -22 30 -5 43 16 13 172 73 189 73 8 0
34 -32 58 -71 25 -39 48 -76 51 -81 3 -5 54 10 116 35 163 66 424 143 553 163
19 3 42 7 50 9 8 2 38 7 65 11 28 3 51 7 52 8 1 1 18 2 38 3 32 1 35 -1 34
-25z"/>
</g>
</svg>
