<?xml version="1.0" standalone="no"?>
<!DOCTYPE svg PUBLIC "-//W3C//DTD SVG 20010904//EN"
 "http://www.w3.org/TR/2001/REC-SVG-20010904/DTD/svg10.dtd">
<svg version="1.0" xmlns="http://www.w3.org/2000/svg"
 width="70.000000pt" height="70.000000pt" viewBox="0 0 70.000000 70.000000"
 preserveAspectRatio="xMidYMid meet">
<metadata>
Created by potrace 1.14, written by Peter Selinger 2001-2017
</metadata>
<g transform="translate(0.000000,70.000000) scale(0.100000,-0.100000)"
fill="#000000" stroke="none">
<path d="M564 670 c-5 -4 -29 -11 -54 -14 -25 -3 -60 -10 -77 -15 -18 -5 -33
-7 -33 -4 0 3 -7 0 -15 -7 -8 -7 -15 -10 -15 -7 0 3 -23 -1 -50 -9 -45 -13
-54 -13 -85 2 -28 13 -41 14 -67 5 -83 -29 -89 -34 -129 -115 l-39 -79 39 -51
c47 -62 156 -176 169 -176 5 0 8 -19 7 -42 -2 -41 1 -46 54 -90 30 -26 58 -44
61 -40 3 4 37 7 75 7 39 0 76 1 83 3 11 4 29 34 37 65 2 4 4 9 5 12 1 3 3 8 4
13 1 4 14 44 29 90 15 46 27 89 27 97 0 8 17 27 37 42 57 42 60 46 56 63 -2 8
0 34 5 56 8 34 6 45 -10 65 -10 13 -25 39 -34 57 -9 17 -20 32 -25 32 -5 0 -9
6 -9 13 0 17 -35 38 -46 27z m-26 -187 c-3 -24 -8 -28 -33 -28 -30 0 -44 -12
-49 -43 -6 -31 -19 -97 -21 -102 -1 -3 -6 -20 -10 -38 -4 -18 -12 -35 -16 -38
-5 -3 -9 -16 -9 -29 0 -27 -24 -39 -40 -20 -8 10 -8 19 -1 34 16 29 13 51 -6
58 -10 4 -27 16 -39 28 -12 11 -32 29 -45 41 -36 31 -99 102 -99 111 0 5 14
14 30 20 23 9 30 9 30 -1 0 -7 8 -20 18 -29 16 -15 21 -15 46 -2 15 8 32 13
36 10 5 -3 11 -1 15 5 4 6 11 8 16 5 5 -4 9 -1 9 5 0 7 6 10 14 7 7 -3 17 -2
22 3 5 5 29 11 54 15 25 4 47 9 49 11 15 15 32 1 29 -23z"/>
</g>
</svg>
