<?xml version="1.0" standalone="no"?>
<!DOCTYPE svg PUBLIC "-//W3C//DTD SVG 20010904//EN"
 "http://www.w3.org/TR/2001/REC-SVG-20010904/DTD/svg10.dtd">
<svg version="1.0" xmlns="http://www.w3.org/2000/svg"
 width="340.000000pt" height="340.000000pt" viewBox="0 0 340.000000 340.000000"
 preserveAspectRatio="xMidYMid meet">
<metadata>
Created by potrace 1.14, written by Peter Selinger 2001-2017
</metadata>
<g transform="translate(0.000000,340.000000) scale(0.100000,-0.100000)"
fill="#000000" stroke="none">
<path d="M1506 3300 c-98 -55 -181 -100 -183 -100 -2 0 -20 -10 -41 -23 -20
-13 -73 -43 -117 -67 -120 -64 -156 -85 -195 -107 -19 -11 -75 -42 -125 -68
-237 -128 -270 -149 -273 -176 -3 -23 4 -29 55 -53 57 -27 76 -37 197 -104 57
-31 101 -41 108 -24 2 4 68 44 148 89 191 106 292 163 467 264 78 45 159 85
168 85 6 -1 15 -4 20 -8 14 -9 74 -42 152 -84 37 -20 73 -40 78 -44 9 -7 197
-113 320 -180 28 -16 91 -51 140 -80 l90 -53 163 84 c135 70 162 87 162 106 0
18 -45 63 -63 63 -2 0 -76 40 -163 88 -150 84 -241 134 -344 190 -82 44 -105
57 -110 62 -3 3 -25 15 -50 28 -25 12 -63 33 -85 45 -208 117 -304 167 -321
167 -10 0 -100 -45 -198 -100z"/>
<path d="M66 2658 c-14 -20 -16 -118 -16 -863 0 -647 3 -845 13 -863 11 -22
38 -39 167 -109 25 -13 68 -37 95 -53 28 -16 69 -38 92 -49 23 -12 45 -25 48
-31 3 -5 15 -10 26 -10 10 0 19 -4 19 -9 0 -5 21 -19 47 -31 27 -12 71 -35 98
-50 28 -16 68 -39 90 -50 22 -12 63 -33 90 -49 28 -15 79 -43 115 -62 36 -19
76 -42 90 -51 14 -8 59 -33 100 -55 41 -22 93 -51 115 -63 22 -12 78 -43 125
-67 47 -25 97 -54 112 -64 14 -10 33 -19 42 -19 9 0 16 -4 16 -8 0 -5 19 -16
43 -26 23 -11 50 -26 59 -34 20 -17 91 -20 110 -5 7 6 49 30 93 53 44 24 85
46 90 51 6 4 39 23 75 42 68 36 102 54 331 183 41 23 101 56 134 74 93 50 127
70 165 92 19 12 60 34 90 50 204 106 191 88 189 276 -1 154 -7 192 -32 192
-17 0 -76 -31 -387 -205 -293 -164 -470 -262 -573 -319 -37 -20 -84 -46 -105
-58 -119 -67 -122 -67 -194 -22 -21 13 -40 24 -43 24 -3 0 -23 11 -45 25 -22
14 -46 25 -54 25 -8 0 -16 4 -18 9 -1 5 -24 20 -50 33 -26 12 -137 73 -245
134 -109 61 -205 114 -213 118 -8 3 -37 20 -65 36 -27 16 -68 38 -90 50 -22
11 -62 34 -90 50 -27 16 -79 44 -115 62 -36 18 -70 38 -77 44 -6 6 -26 17 -45
24 -69 27 -68 25 -68 217 0 95 4 173 9 173 4 0 41 -18 81 -40 40 -22 74 -40
76 -40 2 0 63 -33 136 -73 167 -92 267 -147 293 -160 11 -6 27 -14 35 -18 8
-5 42 -23 75 -39 33 -17 64 -35 70 -41 5 -5 17 -9 26 -9 10 0 19 -3 21 -8 2
-4 55 -36 118 -70 63 -35 122 -67 130 -73 8 -5 25 -13 37 -19 12 -5 54 -27 94
-50 39 -22 77 -40 85 -40 8 0 38 13 67 29 29 16 84 46 122 66 39 21 124 68
190 105 120 67 197 109 310 170 33 18 146 80 250 138 105 58 210 116 235 129
25 14 60 33 79 44 18 11 36 17 39 14 4 -3 7 -166 7 -360 0 -392 0 -391 57
-362 46 23 118 66 150 88 14 11 30 19 36 19 5 0 28 14 50 30 l42 30 0 859 c0
786 -1 860 -17 872 -12 11 -53 14 -164 14 -137 -1 -151 -2 -178 -23 -17 -12
-32 -22 -35 -22 -4 0 -309 -168 -666 -367 -25 -14 -74 -41 -110 -61 -36 -19
-150 -82 -254 -140 l-189 -104 -39 13 c-21 7 -41 16 -44 21 -3 4 -24 17 -47
29 -23 11 -64 33 -92 49 -27 15 -81 45 -120 66 -99 54 -152 83 -236 130 -41
23 -105 59 -144 79 -102 55 -110 60 -115 65 -5 5 -30 18 -135 72 -91 47 -196
102 -296 157 l-77 41 -150 0 c-145 0 -152 -1 -166 -22z m456 -435 c46 -27 101
-57 123 -68 22 -11 42 -22 45 -25 9 -9 162 -93 230 -127 19 -9 42 -22 50 -29
8 -6 51 -30 95 -54 44 -24 103 -56 130 -71 28 -14 66 -36 85 -47 19 -12 53
-31 75 -42 22 -11 54 -29 70 -39 17 -10 57 -32 90 -51 33 -18 64 -36 70 -41 5
-5 17 -9 27 -9 10 0 18 -4 18 -8 0 -11 55 -42 75 -42 15 0 138 64 295 153 19
11 60 34 90 50 30 17 91 50 135 75 44 24 114 62 155 85 41 22 77 43 80 46 3 3
25 16 50 28 25 12 77 40 115 62 39 22 95 53 125 69 89 47 142 76 192 106 26
15 51 25 55 23 6 -4 10 -299 4 -368 0 -8 -22 -26 -48 -39 -27 -13 -77 -40
-113 -60 -36 -21 -81 -47 -100 -57 -19 -11 -62 -35 -95 -53 -33 -19 -73 -40
-90 -49 -16 -8 -32 -17 -35 -21 -3 -3 -21 -14 -40 -23 -19 -10 -48 -26 -65
-36 -35 -21 -105 -60 -195 -109 -36 -19 -117 -64 -180 -100 -63 -36 -144 -81
-178 -100 -35 -19 -82 -45 -104 -57 l-41 -23 -38 24 c-21 13 -41 24 -44 24 -5
0 -149 80 -220 123 -16 9 -43 24 -60 32 -16 9 -43 24 -60 34 -16 10 -57 33
-90 51 -33 18 -73 41 -90 51 -16 10 -48 28 -70 39 -22 12 -62 34 -90 50 -27
16 -61 35 -75 42 -94 52 -149 84 -175 99 -78 46 -247 139 -252 139 -3 0 -12 8
-19 18 -16 21 -20 372 -4 372 5 0 46 -21 92 -47z"/>
</g>
</svg>
