<?xml version="1.0"?>
<svg xmlns="http://www.w3.org/2000/svg" version="1.1" id="Ebene_1" x="0" y="0" viewBox="0 0 167.4 46" xml:space="preserve" width="300" height="82"><style>.st1{fill:#1a1a18}</style><g id="Ebene_2_00000178176985669696685060000007068113889921623455_"><g id="FIP_2017_Gr&#xF6;&#xDF;e_1"><path fill="#ffed00" d="M0 0h167.4v27.7H0z" id="Gelbfl&#xE4;che_59_05_x_9_786_mm"/><path class="st1" d="M11.5 13.1h6.6V15h-6.6v8H9.2V5.2h9.2v2h-6.9zm15.6.9c2.7 0 4.2-1.2 4.2-3.5S30 7.1 27.5 7.1h-2.6V14h2.2zm-2.2 9h-2.2V5.2h4.9c3.8 0 6.1 2 6.1 5.2.1 1.9-.9 3.6-2.6 4.5-1 .5-2.1.8-3.3.8l6.9 7.4h-2.8L25 15.6V23zM39.2 5.2h2.4v2.4h-2.4zm10 0h2.4v2.4h-2.4zm-3.8 2.9L42 17h6.6l-3.2-8.9zm-4 10.8L39.7 23h-2.3l6.7-17.8h2.7L53.3 23h-2.5l-1.5-4.1h-7.9zM59.8 23h-2.3V5.2h2.1l9.5 13.4V5.2h2.2V23h-2L59.8 9.4zm19.8 0h-2.3V5.2h2.3v8.2l6.9-8.2h2.7L81.8 14l7.7 9h-2.8l-7.1-8.3zm14-17.8h2.2V23h-2.2zm8.8 13.8c.2 1.4 1.5 2.5 3 2.3 2 0 3.4-1.2 3.5-3 0-1.5-.8-2.3-3.5-3.3-1.3-.3-2.5-1-3.6-1.9-.9-.9-1.4-2.1-1.3-3.4.1-3 2.2-5 5.4-5 2.4-.1 4.5 1.5 5 3.8l-2.1.6c0-.4-.2-.7-.3-1.1-.6-.8-1.6-1.3-2.6-1.3-1.6-.1-2.9 1-3.1 2.6v.2c0 .8.3 1.6 1 2.1.9.6 1.8 1 2.8 1.3 1.3.4 2.5 1 3.5 2 .8.9 1.2 2 1.1 3.2-.1 3.1-2.4 5.1-5.7 5-1.9.1-3.7-.8-4.7-2.5-.2-.4-.4-.9-.5-1.3l2.1-.3zm23.9-11c-1.1-.7-2.4-1-3.6-1-3.6 0-6.3 3-6.3 7.2s2.7 7.1 6.4 7.1c1.3 0 2.5-.4 3.5-1.1l.8 1.9c-3.4 2-7.8 1.5-10.6-1.4-1.6-1.8-2.4-4.2-2.4-6.6 0-5.3 3.6-9.2 8.5-9.2 1.6 0 3.1.4 4.4 1.2l-.7 1.9zm6.8 15h-2.3V5.2h2.3v8h8.6v-8h2.3V23h-2.3v-7.9h-8.6zm18-9.9h6.7V15h-6.7v6.1h7V23h-9.2V5.2h9.2v2h-7z" id="Schriftzug"/><path class="st1" d="M10.2 45.2h-.9V34.4h.9v10.8zm6 0h-.9V34.4h.7l6.4 8.9v-8.9h.9v10.8h-.7l-6.5-9 .1 9zm12.2-10.8h2.8c3.1 0 5 2 5 5.2 0 3.5-2 5.6-5.5 5.6h-2.3V34.4zm1 10h.5c2.2 0 3-.2 3.8-.8 1.1-1 1.7-2.5 1.6-4 0-2.8-1.5-4.4-4.1-4.4h-1.8v9.2zm11.9-3.6c0 1.6.2 2.3.8 2.9 1.2 1.1 3 1.1 4.2 0 .7-.7.9-1.2.9-2.9v-6.5h1v6.5c.1 1.2-.2 2.3-.9 3.2-.8.8-1.9 1.3-3 1.3-1.2 0-2.3-.5-3.1-1.4-.7-.8-.8-1.5-.8-3.2v-6.5h.9v6.6zm24.1 4.4h-.9v-10h-2.8v-.8h6.6v.8h-2.8v10zm7.5 0H72V34.4h2.8c2.1 0 3.4 1.2 3.4 3 0 1.2-.7 2.4-1.8 2.8-.6.2-1.2.3-1.8.3h-.4l4.8 4.7h-1.3l-4.8-4.7v4.7zm1.6-5.4c1.8 0 2.8-.8 2.8-2.3s-.9-2.3-2.6-2.3h-1.8v4.6h1.6zm9.2 5.4h-.9V34.4h.9v10.8zm5.8-2.9l-1.2 2.8h-.9l4.2-10.8h1l4.1 10.8h-1l-1.1-2.8h-5.1zm2.7-6.7l-2.3 5.9h4.6l-2.3-5.9zm13.2 8.7v.9h-4.8V34.4h.9v9.9h3.9zm12 .9h-.9V34.4h2.6c1-.1 2 .2 2.9.8.7.6 1.1 1.5 1 2.4 0 1-.4 2-1.2 2.6-.8.5-1.7.7-2.6.7h-1.8v4.3zm1.7-5.2c.5 0 1 0 1.5-.2 1-.3 1.6-1.2 1.6-2.2 0-1-.7-2-1.7-2.2-.6-.1-1.1-.2-1.7-.2h-1.3V40h1.6zm8.7 5.2h-.9V34.4h.9v10.8zm6 0h-.9V34.4h2.6c1-.1 2 .2 2.9.8.7.6 1.1 1.5 1.1 2.4 0 1-.4 2-1.2 2.6-.8.5-1.7.7-2.6.7h-1.8l-.1 4.3zm1.7-5.2c.5 0 1 0 1.5-.2 1-.3 1.6-1.2 1.6-2.2 0-1-.7-2-1.6-2.2-.6-.1-1.1-.2-1.7-.2h-1.4V40h1.6zm8.8-.7h4.5v.8h-4.5v4.2h4.5v.8h-5.4V34.4h5.4v.8h-4.5v4.1zm-88.4 0c-.7-.2-1.4-.5-2-.9-.4-.3-.6-.9-.6-1.4-.1-1.1.8-2 1.9-2.1h.2c.7 0 1.4.3 1.8.9.2.3.3.6.3.9l.9-.2c-.2-1.4-1.5-2.5-2.9-2.4-1.6-.1-2.9 1.2-3 2.7v.3c0 .8.3 1.5.8 2 .6.5 1.3.8 2.1 1 1.8.6 2.4 1.1 2.4 2.2 0 1.2-1 2.2-2.2 2.2h-.2c-.7.1-1.4-.3-1.8-.9-.2-.3-.3-.6-.3-.9l-.9.3c.1.6.3 1.1.7 1.5.6.6 1.5 1 2.3.9 1.7.1 3.1-1.1 3.2-2.8v-.2c0-.7-.2-1.4-.7-1.9-.5-.6-1.2-1-2-1.2zm99.9 0c-.7-.2-1.4-.5-2-.9-.4-.3-.6-.9-.6-1.4-.1-1.1.8-2 1.9-2.1h.2c.7 0 1.4.3 1.8.9.2.3.3.6.3.9l.9-.2c-.2-1.4-1.5-2.5-2.9-2.4-1.6-.1-2.9 1.2-3 2.7v.3c0 .8.3 1.5.8 2 .6.5 1.3.8 2.1 1 1.8.6 2.4 1.1 2.4 2.2 0 1.2-1 2.2-2.2 2.2h-.2c-.7.1-1.4-.3-1.8-.9-.2-.3-.3-.6-.3-.9l-.9.2c.1.6.3 1.1.7 1.5.6.6 1.5 1 2.4.9 1.7.1 3.1-1.1 3.2-2.8v-.2c0-.7-.2-1.3-.7-1.8-.6-.5-1.3-1-2.1-1.2z" id="Industrial_Pipes_Text"/></g></g></svg>
